<svg width="51" height="51" viewBox="0 0 51 51" fill="none" xmlns="http://www.w3.org/2000/svg">
<g id="logo-desktop (2) 1" clip-path="url(#clip0_983_24850)">
<path id="Vector" d="M40.7292 12.6436C40.2334 11.9353 39.8084 11.1915 39.4542 10.4124C39.6667 13.104 40.5167 17.3894 43.173 22.7728C46.0771 22.1353 48.8042 20.7894 51.1063 18.8769V18.8415C45.5813 18.0978 42.4292 15.1228 40.7292 12.6436Z" fill="#440099"/>
<path id="Vector_2" d="M37.7896 24.6854C34.5313 24.7208 31.2729 24.0834 28.2979 22.8084C26.0313 21.7813 23.9771 20.3646 22.2417 18.6292C20.5417 16.9292 19.1604 14.9458 18.1688 12.7146L17.2479 12.1833C17.3188 13.6 17.7438 16.3979 19.4083 20.2229C20.9313 23.5875 22.8438 26.8104 25.075 29.75H51.1063V20.5771C49.9375 21.4625 48.6625 22.2063 47.3167 22.8084C44.3063 24.0834 41.0479 24.7208 37.7896 24.6854Z" fill="#440099"/>
<path id="Vector_3" d="M16.0084 10.7313L16.3271 10.0938L19.2667 11.7938L19.3375 12.0063C20.2584 14.1313 21.5688 16.0792 23.2334 17.7083C24.8625 17.5313 26.4209 17.0708 27.9084 16.3625C31.5563 14.5917 34.3896 11.4396 36.3375 7.0125L36.5146 6.62292H39.5959C39.9855 8.53542 40.8 10.3417 41.898 11.9354C44.0584 15.0521 47.175 16.9292 51.1417 17.5313L51.1771 0H-0.0353833L-0.0708008 23.6938C0.318783 23.5875 0.743783 23.4458 1.13337 23.3042C5.95003 21.5688 12.3959 18.0271 16.0084 10.7313Z" fill="#440099"/>
<path id="Vector_4" d="M-0.0708008 26.3855V29.7501H18.2396C14.3792 28.298 10.3771 27.3417 6.26878 26.8813C4.03753 26.598 1.87712 26.4563 -0.0708008 26.3855Z" fill="#440099"/>
<path id="Vector_5" d="M-0.0708008 32.8667H6.37503C13.0334 32.8667 16.575 36.1604 16.575 41.8625C16.575 47.7063 13.3167 51.1063 6.37503 51.1063H-0.0708008V32.8667ZM6.87087 47.1042C9.98753 47.1042 11.5459 45.0854 11.5459 41.8979C11.5459 38.8167 9.88128 36.8334 6.87087 36.8334H4.95836V47.1042H6.87087Z" fill="#440099"/>
<path id="Vector_6" d="M18.5939 32.8667H32.3355V37.1875H23.623V39.9854H31.3439V43.7396H23.623V46.7854H32.4418V51.1063H18.5939V32.8667Z" fill="#440099"/>
<path id="Vector_7" d="M34.7438 32.8667H39.525L46.3604 43.2438V32.8667H51.1063V51.1063H46.3604L39.525 40.8V51.1063H34.7792V32.8667H34.7438Z" fill="#440099"/>
</g>
<defs>
<clipPath id="clip0_983_24850">
<rect width="51" height="51" fill="white"/>
</clipPath>
</defs>
</svg>
